<?xml version="1.0" encoding="utf-8"?>
<!-- Generator: Adobe Illustrator 27.8.1, SVG Export Plug-In . SVG Version: 6.00 Build 0)  -->
<svg version="1.1" id="Capa_1" xmlns="http://www.w3.org/2000/svg" xmlns:xlink="http://www.w3.org/1999/xlink" x="0px" y="0px"
	 viewBox="0 0 189.3 89.3" style="enable-background:new 0 0 189.3 89.3;" xml:space="preserve">
<style type="text/css">
	.st0{fill:#E18433;}
	.st1{fill:#EEC54B;}
	.st2{fill:#FCF7EF;}
	.st3{fill:#7AAFA4;}
	.st4{fill:#523221;}
	.st5{font-family:'Poppins-Bold';}
	.st6{font-size:28.87px;}
	.st7{letter-spacing:0.9;}
	.st8{font-family:'Poppins-Regular';}
</style>
<g id="OBJECTS">
	<g>
		<g>
			<path class="st0" d="M18.2,73.1c2,1.6,4.4,1.8,6.7,2.2c0-0.2,0.1-0.3,0-0.3c-0.1-0.1-0.2-0.2-0.3-0.2
				C22.4,74.6,20.2,74.1,18.2,73.1c-0.5-0.6-1.1-1.1-1.5-1.8c-1-1.6-0.3-3.2,1.6-3.4c1.3-0.2,2.7-0.2,4-0.1
				c5.3,0.3,10.6,0.6,15.9,0.3c4-0.2,8-0.4,12-0.7c0.9-0.1,1.8-0.4,2.9-0.6c-0.9-0.9-1.6-1.2-2.6-1.2c-6.1,0.2-12.1,0.4-18.2,0.6
				c-5.2,0.2-10.5,0.5-15.7,0.7c-0.8,0-1.6,0.1-2.4,0.2c-0.5,0-0.8,0.2-1,0.7c-0.2,0.4,0,0.7,0.3,1c0.6,0.7,1.1,1.4,1.8,2
				C16.2,71.6,17.2,72.3,18.2,73.1L18.2,73.1z"/>
			<path class="st1" d="M17.8,7.8c0,0.7,0,1.4,0,2.1c0,6.5,0.6,13.1,0.2,19.6c0,0.4,0,0.9,0,1.4c0,2,0.1,4.1,0.1,6.1
				c-0.1,4.4-0.2,8.7-0.3,13.1c0,4.5,0.1,8.9,0.1,13.4c0,0.3,0,0.5,0.1,0.9c11.3-0.4,22.5-0.9,33.8-1.3c-0.3-18.9-0.6-37.7-1-56.5
				C39.8,6,28.9,6.2,17.8,7.8L17.8,7.8z"/>
			<path class="st0" d="M15.4,8c-0.9,0.2-1.8,0.3-2.7,0.6c-0.5,0.2-1.1,0.5-1.6,0.7c-0.6,0.3-0.8,0.8-0.8,1.4
				c0,8.7-0.1,17.4-0.2,26.1c0,3.5,0,7.1,0,10.6c0,4.6-0.2,9.2-0.2,13.9c0,1.3,0.3,2.5,0.6,3.7c1.9-0.3,3.7-0.5,5.5-0.8
				c0-0.2,0-0.4,0-0.5c-0.1-5-0.3-10.1-0.3-15.1c0-4.4,0.3-8.7,0.1-13c-0.1-2.8,0-5.5,0-8.3c-0.1-6.3-0.2-12.6-0.4-18.8
				C15.5,8.4,15.5,8.3,15.4,8L15.4,8z"/>
			<path class="st2" d="M56.9,14.7c0,0.5,0,0.8,0,1.2c0.1,1.8,0.1,3.7,0.2,5.5c0.1,5.9,0.2,11.7,0.2,17.6c0,2.1,0,4.3,0,6.4
				c0,7.1,0.2,14.3-0.6,21.4c0,0.2,0,0.5,0.1,0.7c0.6,0.8,1.3,1.5,2.1,2.4c0-0.4,0-0.6,0-0.9c0.2-10.9,0.3-21.9,0.5-32.8
				c0-1.4,0-2.7,0.1-4c0.2-4.8,0.1-9.7-0.1-14.5c0-0.3-0.1-0.7-0.2-0.9C58.5,16.1,57.7,15.5,56.9,14.7L56.9,14.7z"/>
			<path class="st0" d="M54.6,64.5c0.1-0.4,0.1-0.6,0.1-0.9c0.2-4.2,0.4-8.5,0.5-12.7c0.1-6.1,0-12.1,0-18.2
				c-0.1-6.9-0.3-13.8-0.4-20.7c0-1.2-0.2-2.3-0.4-3.5c-0.1-0.5-0.3-0.9-0.5-1.4c-0.1,0-0.1,0-0.2,0.1c0,0.2,0,0.4,0,0.7
				c0.1,8,0.3,16,0.4,24c0.1,6.8,0.2,13.6,0.2,20.4c0,3.5-0.2,7-0.3,10.6C53.9,63.5,54.2,63.9,54.6,64.5L54.6,64.5z"/>
			<path class="st3" d="M34.2,70.3H28c-0.6,2.1-0.5,9,0.1,10.5c0.3-0.5,0.6-1,0.9-1.5c0.7-0.9,1.6-1,2.4-0.3
				c0.4,0.4,0.8,0.8,1.1,1.2c0.5,0.6,1,1.3,1.7,2.1L34.2,70.3L34.2,70.3z"/>
			<path class="st2" d="M58.1,71.3c-0.9-0.8-1.7-1.4-2.4-2.1c-0.4-0.4-0.8-0.4-1.3-0.3c-1.5,0.3-2.9,0.6-4.4,0.7
				c-4.2,0.3-8.5,0.4-12.7,0.6c-0.3,0-0.5,0.1-0.9,0.1V73c0.8-0.1,1.4-0.2,2.1-0.3c5.4-0.5,10.8-0.9,16.2-0.9
				C55.8,71.8,56.8,71.5,58.1,71.3L58.1,71.3z"/>
			<path class="st0" d="M61.2,16.4c0.1,1.3,0.2,2.5,0.2,3.6c-0.1,8.5-0.2,17-0.3,25.5c-0.1,8.4-0.1,16.8-0.2,25.2
				c0,0.8,0.3,1.3,1.1,1.7c-0.1-7.8-0.3-15.5-0.3-23.2c0-7,0.3-13.9,0.4-20.9c0.1-3.1,0.2-6.3,0.3-9.4C62.3,17.8,62,17.1,61.2,16.4
				L61.2,16.4z"/>
			<path class="st0" d="M36.3,75c0.3,0.6,0.8,0.5,1.2,0.5c3.1,0,6.2,0,9.3-0.1c3.8-0.1,7.7-0.3,11.5-0.5c0.8,0,1.6-0.3,2.5-0.5
				c-1.4-1.1-1.4-1-3-0.8c-2.1,0.2-4.2,0.4-6.3,0.5c-1.1,0.1-2.2-0.1-3.3,0c-3.8,0.2-7.6,0.5-11.5,0.7C36.7,74.8,36.6,74.9,36.3,75
				L36.3,75z"/>
			<path class="st2" d="M25,72.5c0.1-0.9,0.2-1.6,0.3-2.5c-2.3,0-4.5-0.4-7,0.1C20.3,72.1,22.6,72.1,25,72.5L25,72.5z"/>
		</g>
		<path class="st4" d="M36.5,77.9c0,1.6,0,2.9,0,4.3c0,0.6,0,1.2-0.2,1.9c-0.3,1.2-1.1,1.6-2,0.8c-1.1-0.8-2.1-1.8-3.2-2.8
			c-0.2-0.2-0.4-0.4-0.7-0.8c-0.2,0.5-0.4,0.9-0.6,1.3c-0.3,0.6-0.5,1.1-0.8,1.7c-0.3,0.6-0.8,1-1.5,1c-0.8-0.1-1.1-0.6-1.3-1.3
			c-0.3-1.3-0.6-2.6-0.8-3.9c-0.2-0.9-0.2-1.8-0.4-2.7c-1.3-0.1-2.6-0.1-3.8-0.2c-2.8-0.3-5-1.8-7-3.6c-1.9-1.7-3.6-3.7-4.9-6
			c-1.2-2.2-2.1-4.5-2-7.1c0-3.3,0.2-6.6,0.2-9.8c0.1-7.3,0.1-14.6,0.1-22c0-5.3,0.1-10.6,0.1-16c0-1,0.1-2.1,0.1-3.1
			C8,9,8.3,8.6,8.7,8.1c1.5-1.9,3.6-2.3,5.8-2.6C18.3,5,22.1,4.6,26,4.2c6.8-0.7,13.7-0.7,20.5-0.6c1.7,0,3.3,0,5,0.2
			c1,0.1,2.1,0.5,3,0.9c1,0.5,1.7,1.4,1.9,2.6c0.2,1.3,0.4,2.7,0.5,4c0,0.5,0.1,0.9,0.7,1.1c0.3,0.1,0.5,0.3,0.8,0.5
			c0.4,0.4,0.8,0.6,1.4,0.4c0.2-0.1,0.6,0,0.9,0.1c1.5,0.7,2.7,1.8,3.3,3.3c0.3,0.8,0.4,1.7,0.3,2.5c-0.4,3.4-0.2,6.9-0.4,10.3
			c-0.2,4.8-0.4,9.7-0.5,14.5c-0.1,2.3,0,4.6,0.1,6.9c0,2,0.1,4,0.2,6c0.1,4.2,0.2,8.4,0.3,12.6c0,1.3-0.1,2.7-0.1,4
			c0,1-0.5,1.7-1.4,2.1c-0.6,0.3-1.3,0.6-1.9,0.7c-2.1,0.4-4.3,0.9-6.4,1c-4.9,0.2-9.8,0.3-14.7,0.4C38.3,78.1,37.5,78,36.5,77.9
			L36.5,77.9z M18.2,73.1c2,1.6,4.4,1.8,6.7,2.2c0-0.2,0.1-0.3,0-0.3c-0.1-0.1-0.2-0.2-0.3-0.2C22.4,74.6,20.2,74.1,18.2,73.1
			c-0.5-0.6-1.1-1.1-1.5-1.8c-1-1.6-0.3-3.2,1.6-3.4c1.3-0.2,2.7-0.2,4-0.1c5.3,0.3,10.6,0.6,15.9,0.3c4-0.2,8-0.4,12-0.7
			c0.9-0.1,1.8-0.4,2.9-0.6c-0.9-0.9-1.6-1.2-2.6-1.2c-6.1,0.2-12.1,0.4-18.2,0.6c-5.2,0.2-10.5,0.5-15.7,0.7
			c-0.8,0-1.6,0.1-2.4,0.2c-0.5,0-0.8,0.2-1,0.7c-0.2,0.4,0,0.7,0.3,1c0.6,0.7,1.1,1.4,1.8,2C16.2,71.6,17.2,72.3,18.2,73.1
			L18.2,73.1z M17.8,7.8c0,0.7,0,1.4,0,2.1c0,6.5,0.6,13.1,0.2,19.6c0,0.4,0,0.9,0,1.4c0,2,0.1,4.1,0.1,6.1
			c-0.1,4.4-0.2,8.7-0.3,13.1c0,4.5,0.1,8.9,0.1,13.4c0,0.3,0,0.5,0.1,0.9c11.3-0.4,22.5-0.9,33.8-1.3c-0.3-18.9-0.6-37.7-1-56.5
			C39.8,6,28.9,6.2,17.8,7.8L17.8,7.8z M15.4,8c-0.9,0.2-1.8,0.3-2.7,0.6c-0.5,0.2-1.1,0.5-1.6,0.7c-0.6,0.3-0.8,0.8-0.8,1.4
			c0,8.7-0.1,17.4-0.2,26.1c0,3.5,0,7.1,0,10.6c0,4.6-0.2,9.2-0.2,13.9c0,1.3,0.3,2.5,0.6,3.7c1.9-0.3,3.7-0.5,5.5-0.8
			c0-0.2,0-0.4,0-0.5c-0.1-5-0.3-10.1-0.3-15.1c0-4.4,0.3-8.7,0.1-13c-0.1-2.8,0-5.5,0-8.3c-0.1-6.3-0.2-12.6-0.4-18.8
			C15.5,8.4,15.5,8.3,15.4,8L15.4,8z M56.9,14.7c0,0.5,0,0.8,0,1.2c0.1,1.8,0.1,3.7,0.2,5.5c0.1,5.9,0.2,11.7,0.2,17.6
			c0,2.1,0,4.3,0,6.4c0,7.1,0.2,14.3-0.6,21.4c0,0.2,0,0.5,0.1,0.7c0.6,0.8,1.3,1.5,2.1,2.4c0-0.4,0-0.6,0-0.9
			c0.2-10.9,0.3-21.9,0.5-32.8c0-1.4,0-2.7,0.1-4c0.2-4.8,0.1-9.7-0.1-14.5c0-0.3-0.1-0.7-0.2-0.9C58.5,16.1,57.7,15.5,56.9,14.7
			L56.9,14.7z M54.6,64.5c0.1-0.4,0.1-0.6,0.1-0.9c0.2-4.2,0.4-8.5,0.5-12.7c0.1-6.1,0-12.1,0-18.2c-0.1-6.9-0.3-13.8-0.4-20.7
			c0-1.2-0.2-2.3-0.4-3.5c-0.1-0.5-0.3-0.9-0.5-1.4c-0.1,0-0.1,0-0.2,0.1c0,0.2,0,0.4,0,0.7c0.1,8,0.3,16,0.4,24
			c0.1,6.8,0.2,13.6,0.2,20.4c0,3.5-0.2,7-0.3,10.6C53.9,63.5,54.2,63.9,54.6,64.5L54.6,64.5z M34.2,70.3h-6.2
			c-0.6,2.1-0.5,9,0.1,10.5c0.3-0.5,0.6-1,0.9-1.5c0.7-0.9,1.6-1,2.4-0.3c0.4,0.4,0.8,0.8,1.1,1.2c0.5,0.6,1,1.3,1.7,2.1L34.2,70.3
			L34.2,70.3z M58.1,71.3c-0.9-0.8-1.7-1.4-2.4-2.1c-0.4-0.4-0.8-0.4-1.3-0.3c-1.5,0.3-2.9,0.6-4.4,0.7c-4.2,0.3-8.5,0.4-12.7,0.6
			c-0.3,0-0.5,0.1-0.9,0.1V73c0.8-0.1,1.4-0.2,2.1-0.3c5.4-0.5,10.8-0.9,16.2-0.9C55.8,71.8,56.8,71.5,58.1,71.3L58.1,71.3z
			 M61.2,16.4c0.1,1.3,0.2,2.5,0.2,3.6c-0.1,8.5-0.2,17-0.3,25.5c-0.1,8.4-0.1,16.8-0.2,25.2c0,0.8,0.3,1.3,1.1,1.7
			c-0.1-7.8-0.3-15.5-0.3-23.2c0-7,0.3-13.9,0.4-20.9c0.1-3.1,0.2-6.3,0.3-9.4C62.3,17.8,61.9,17.1,61.2,16.4L61.2,16.4z M36.3,75
			c0.3,0.6,0.8,0.5,1.2,0.5c3.1,0,6.2,0,9.3-0.1c3.8-0.1,7.7-0.3,11.5-0.5c0.8,0,1.6-0.3,2.5-0.5c-1.4-1.1-1.4-1-3-0.8
			c-2.1,0.2-4.2,0.4-6.3,0.5c-1.1,0.1-2.2-0.1-3.3,0c-3.8,0.2-7.6,0.5-11.5,0.7C36.7,74.8,36.6,74.9,36.3,75L36.3,75z M25,72.5
			c0.1-0.9,0.2-1.6,0.3-2.5c-2.3,0-4.5-0.4-7,0.1C20.3,72.1,22.6,72.1,25,72.5L25,72.5z"/>
		<g>
			<path class="st4" d="M34.8,45.5c-3.1,0-5.7-2.4-6.3-5.6c-0.1-0.5-0.1-1-0.1-1.4c0.1-0.9,0.6-1.4,1.2-1.4c0.7,0,1.1,0.5,1.2,1.4
				c0.1,0.7,0.2,1.4,0.5,2c0.4,1.1,1.1,1.8,2.2,2.2c1.3,0.5,2.4,0.2,3.4-0.8c0.9-0.9,1.4-1.9,1.8-3.1c0.2-0.5,0.3-1,0.6-1.4
				c0.2-0.3,0.7-0.6,1-0.5c0.4,0.1,0.7,0.4,1,0.8c0.2,0.2,0.2,0.7,0.1,1c-0.4,2.1-1.3,4-3,5.4C37.3,45,36,45.5,34.8,45.5L34.8,45.5z
				"/>
			<path class="st4" d="M40.5,28.8c0-0.9,0.6-1.6,1.4-1.6c0.8,0,1.4,0.7,1.4,1.6c0,1.1-0.7,1.9-1.4,1.8
				C41.1,30.5,40.5,29.7,40.5,28.8L40.5,28.8z"/>
			<path class="st4" d="M28.8,29.8c0,0.8-0.6,1.4-1.3,1.4c-0.7,0-1.3-0.6-1.4-1.3c0-0.8,0.5-1.4,1.3-1.5
				C28.1,28.4,28.7,29.1,28.8,29.8L28.8,29.8z"/>
		</g>
	</g>
</g>
<g id="TEXT">
	<text transform="matrix(1.07 0 0 1 75.3799 40.3803)" class="st4 st5 st6 st7">Happy</text>
	<text transform="matrix(1.07 0 0 1 75.3799 71.2104)" class="st4 st8 st6 st7">Books</text>
</g>
</svg>
